<svg width="352" height="370" viewBox="0 0 352 370" fill="none" xmlns="http://www.w3.org/2000/svg">
<path d="M243 228V234H109V228H243ZM287 184V50C287 25.6995 267.301 6 243 6H109C84.6995 6 65 25.6995 65 50V184C65 208.301 84.6995 228 109 228V234L108.354 233.996C81.2524 233.653 59.3473 211.748 59.0039 184.646L59 184V50C59 22.3858 81.3858 2.73811e-07 109 0H243C270.614 0 293 22.3858 293 50V184C293 211.398 270.963 233.65 243.646 233.996L243 234V228C267.301 228 287 208.301 287 184Z" fill="url(#paint0_linear_5227_823)"/>
<path d="M287 117C287 55.6964 237.304 6 176 6C114.696 6 65 55.6964 65 117C65 178.304 114.696 228 176 228V234C111.383 234 59 181.617 59 117C59 52.3827 111.383 0 176 0C240.617 0 293 52.3827 293 117C293 181.617 240.617 234 176 234V228C237.304 228 287 178.304 287 117Z" fill="url(#paint1_linear_5227_823)"/>
<path d="M169 187H258V196H169V187Z" fill="url(#paint2_linear_5227_823)"/>
<path d="M256 190C256 186.686 253.314 184 250 184H177C173.686 184 171 186.686 171 190V194H256V190ZM260 198H167V190C167 184.477 171.477 180 177 180H250C255.523 180 260 184.477 260 190V198Z" fill="#171F52"/>
<path d="M246 178C246 174.686 243.314 172 240 172H188C184.686 172 182 174.686 182 178V180H246V178ZM250 184H178V178C178 172.477 182.477 168 188 168H240C245.523 168 250 172.477 250 178V184Z" fill="#171F52"/>
<path d="M153.484 71.5246C152.324 69.9047 152.696 67.651 154.316 66.4908L184.162 45.1133C185.782 43.953 188.036 44.3256 189.196 45.9455C190.356 47.5653 189.984 49.819 188.364 50.9793L158.518 72.3568C156.898 73.517 154.644 73.1444 153.484 71.5246Z" fill="url(#paint3_linear_5227_823)"/>
<path d="M200.168 140.896C199.008 139.276 199.381 137.023 201 135.862L232.779 113.101C234.399 111.941 236.652 112.313 237.812 113.933C238.973 115.553 238.6 117.807 236.98 118.967L205.202 141.728C203.582 142.889 201.328 142.516 200.168 140.896Z" fill="url(#paint4_linear_5227_823)"/>
<path d="M166.968 74.7302C166.03 73.4216 166.331 71.6009 167.64 70.6635L184.347 58.6972C185.655 57.7599 187.476 58.0609 188.413 59.3695C189.351 60.6782 189.05 62.4989 187.741 63.4362L171.034 75.4025C169.726 76.3399 167.905 76.0388 166.968 74.7302Z" fill="url(#paint5_linear_5227_823)"/>
<path d="M198.697 124.426C197.76 123.118 198.061 121.297 199.369 120.36L217.048 107.697C218.356 106.76 220.177 107.061 221.115 108.369C222.052 109.678 221.751 111.499 220.442 112.436L202.764 125.099C201.455 126.036 199.635 125.735 198.697 124.426Z" fill="url(#paint6_linear_5227_823)"/>
<path d="M193.136 57.8008C194.458 56.882 196.274 57.2086 197.193 58.5303L224.723 98.1321C225.642 99.4538 225.315 101.27 223.994 102.189C222.672 103.108 220.856 102.781 219.937 101.459L192.407 61.8576C191.488 60.5359 191.814 58.7196 193.136 57.8008Z" fill="#E3BE5B"/>
<path d="M206.08 126.113L201.92 128.887L197.92 122.887L202.08 120.113L206.08 126.113Z" fill="#0D2A4C"/>
<path d="M231.347 107.48L227.362 110.499L223.007 104.751L226.993 101.732L231.347 107.48Z" fill="#164C88"/>
<path d="M170.08 74.1133L165.92 76.8867L161.92 70.8867L166.08 68.1133L170.08 74.1133Z" fill="#154A89"/>
<path d="M196.08 56.6133L191.92 59.3867L187.92 53.3867L192.08 50.6133L196.08 56.6133Z" fill="#1A5CA3"/>
<path d="M235.47 96.5469L191.522 128.958L186.526 122.535L190.474 119.465L192.478 122.041L228.529 95.4531L200.91 56.9668L166.376 81.1846L170.12 87.1748L165.88 89.8252L159.623 79.8145L202.089 50.0332L235.47 96.5469Z" fill="url(#paint7_linear_5227_823)"/>
<path d="M191.405 45.69L194.025 49.3483L161.223 72.8434L158.603 69.185L191.405 45.69ZM192.212 40.8065C191.087 39.235 188.9 38.8736 187.329 39.9991L154.526 63.4942C152.955 64.6198 152.594 66.8062 153.719 68.3777C154.845 69.9492 157.031 70.3106 158.603 69.185L161.223 72.8434L160.882 73.0747C157.321 75.3615 152.553 74.4776 150.061 70.998C147.488 67.4061 148.314 62.4086 151.906 59.8358L184.708 36.3408C188.3 33.768 193.298 34.5942 195.871 38.1861C198.443 41.7781 197.617 46.7756 194.025 49.3483L191.405 45.69C192.976 44.5644 193.338 42.378 192.212 40.8065Z" fill="url(#paint8_linear_5227_823)"/>
<path d="M239.003 115.008L241.623 118.666L208.821 142.161L206.2 138.503L239.003 115.008ZM239.81 110.124C238.684 108.553 236.498 108.191 234.926 109.317L202.124 132.812C200.553 133.937 200.191 136.124 201.317 137.695C202.442 139.267 204.629 139.628 206.2 138.503L208.821 142.161L208.479 142.392C204.918 144.679 200.151 143.795 197.658 140.316C195.086 136.724 195.912 131.726 199.504 129.153L232.306 105.658C235.898 103.086 240.896 103.912 243.468 107.504C246.041 111.096 245.215 116.093 241.623 118.666L239.003 115.008C240.574 113.882 240.936 111.696 239.81 110.124Z" fill="url(#paint9_linear_5227_823)"/>
<path d="M187.092 127.307L172.5 138.007V158.988L151.615 175.288L150.385 173.712L170.5 158.012V136.993L185.908 125.693L187.092 127.307Z" fill="#11184B"/>
<path d="M154.582 178.762L146.349 185.299L139.552 176.739L147.786 170.201L154.582 178.762ZM142.362 177.061L146.671 182.489L151.773 178.439L147.463 173.011L142.362 177.061Z" fill="#11184B"/>
<path d="M196.618 108.786L159.5 137.985V152.5H157.5V137.015L195.382 107.214L196.618 108.786Z" fill="#11184B"/>
<path d="M162 155.5C162 157.433 160.433 159 158.5 159C156.567 159 155 157.433 155 155.5C155 153.567 156.567 152 158.5 152C160.433 152 162 153.567 162 155.5Z" fill="#11184B"/>
<path d="M203 105.5C203 103.567 201.433 102 199.5 102C197.567 102 196 103.567 196 105.5C196 107.433 197.567 109 199.5 109V111C196.462 111 194 108.538 194 105.5C194 102.462 196.462 100 199.5 100C202.538 100 205 102.462 205 105.5C205 108.538 202.538 111 199.5 111V109C201.433 109 203 107.433 203 105.5Z" fill="#11184B"/>
<path d="M183.61 98.792L133.274 137.551L109.283 134.051L85.6211 152.784L84.3789 151.216L108.379 132.216L108.718 131.948L132.725 135.449L182.39 97.208L183.61 98.792Z" fill="#11184B"/>
<path d="M85 154.5C85 152.567 83.433 151 81.5 151C79.567 151 78 152.567 78 154.5C78 156.433 79.567 158 81.5 158V160C78.4624 160 76 157.538 76 154.5C76 151.462 78.4624 149 81.5 149C84.5376 149 87 151.462 87 154.5C87 157.538 84.5376 160 81.5 160V158C83.433 158 85 156.433 85 154.5Z" fill="#182F67"/>
<path d="M190 96C190 98.2091 188.209 100 186 100C183.791 100 182 98.2091 182 96C182 93.7909 183.791 92 186 92C188.209 92 190 93.7909 190 96Z" fill="#11184B"/>
<path d="M157.17 117.015L156.83 118.985L142.761 116.56L127.787 128.04L127.386 127.993L114.386 126.493L114.614 124.507L127.212 125.96L141.892 114.706L142.239 114.44L157.17 117.015Z" fill="#11184B"/>
<path d="M141 120C141 122.761 138.761 125 136 125C133.239 125 131 122.761 131 120C131 117.239 133.239 115 136 115C138.761 115 141 117.239 141 120Z" fill="white"/>
<path d="M139 120C139 118.343 137.657 117 136 117C134.343 117 133 118.343 133 120C133 121.657 134.343 123 136 123V125C133.239 125 131 122.761 131 120C131 117.239 133.239 115 136 115C138.761 115 141 117.239 141 120C141 122.761 138.761 125 136 125V123C137.657 123 139 121.657 139 120Z" fill="#11184B"/>
<path d="M137 153.5C137 156.538 134.538 159 131.5 159C128.462 159 126 156.538 126 153.5C126 150.462 128.462 148 131.5 148C134.538 148 137 150.462 137 153.5Z" fill="white"/>
<path d="M135 153.5C135 151.567 133.433 150 131.5 150C129.567 150 128 151.567 128 153.5C128 155.433 129.567 157 131.5 157V159C128.462 159 126 156.538 126 153.5C126 150.462 128.462 148 131.5 148C134.538 148 137 150.462 137 153.5C137 156.538 134.538 159 131.5 159V157C133.433 157 135 155.433 135 153.5Z" fill="#11184B"/>
<path d="M141.5 131V147.48L141.125 147.781L136.125 151.781L134.875 150.219L139.5 146.519V131H141.5Z" fill="#11184B"/>
<path d="M159.6 86.2998L151.208 92.5938L131.244 87.1035L121.278 95.5752L111.233 93.5664L106.088 97.3086L104.912 95.6914L110.767 91.4336L120.721 93.4238L130.353 85.2383L130.755 84.8955L150.792 90.4053L158.4 84.7002L159.6 86.2998Z" fill="#11184B"/>
<path d="M105 100C105 97.7909 103.209 96 101 96C98.7909 96 97 97.7909 97 100C97 102.209 98.7909 104 101 104V106C97.6863 106 95 103.314 95 100C95 96.6863 97.6863 94 101 94C104.314 94 107 96.6863 107 100C107 103.314 104.314 106 101 106V104C103.209 104 105 102.209 105 100Z" fill="#11184B"/>
<path d="M165.109 91.793L151.767 102.057L132.84 98.9873L133.16 97.0127L151.232 99.9434L163.891 90.207L165.109 91.793Z" fill="#11184B"/>
<path d="M134 97.5C134 99.433 132.433 101 130.5 101C128.567 101 127 99.433 127 97.5C127 95.567 128.567 94 130.5 94C132.433 94 134 95.567 134 97.5Z" fill="#11184B"/>
<path d="M123 106.5C123 108.985 120.985 111 118.5 111C116.015 111 114 108.985 114 106.5C114 104.015 116.015 102 118.5 102C120.985 102 123 104.015 123 106.5Z" fill="#11184B"/>
<path d="M183.126 87.2793L154.796 110.045L134.8 107.545L121.632 118.275L120.368 116.725L133.868 105.725L134.2 105.455L154.204 107.955L181.874 85.7207L183.126 87.2793Z" fill="#11184B"/>
<path d="M189 83.5C189 81.567 187.433 80 185.5 80C183.567 80 182 81.567 182 83.5C182 85.433 183.567 87 185.5 87V89C182.462 89 180 86.5376 180 83.5C180 80.4624 182.462 78 185.5 78C188.538 78 191 80.4624 191 83.5C191 86.5376 188.538 89 185.5 89V87C187.433 87 189 85.433 189 83.5Z" fill="#11184B"/>
<path d="M115.615 116.288L99.6152 128.788L98.3848 127.212L114.385 114.712L115.615 116.288Z" fill="#11184B"/>
<path d="M101 130C101 132.209 99.2091 134 97 134C94.7909 134 93 132.209 93 130C93 127.791 94.7909 126 97 126C99.2091 126 101 127.791 101 130Z" fill="#11184B"/>
<path d="M108.201 119.521L107.799 121.479L91.2549 118.073L82.1201 125.285L80.8799 123.715L90.3799 116.215L90.7461 115.927L108.201 119.521Z" fill="#11184B"/>
<path d="M79.1089 120.653L85.4573 128.648L77.5188 134.951L71.1703 126.956L79.1089 120.653Z" fill="#11184B"/>
<path d="M184.607 108.295L148.989 135.503L148.5 158.021L148.489 158.489L148.125 158.781L128.478 174.498L127.999 185.046L126.001 184.955L126.521 173.502L146.51 157.51L147.011 134.497L183.393 106.705L184.607 108.295Z" fill="#11184B"/>
<path d="M130 187.5C130 189.433 128.433 191 126.5 191C124.567 191 123 189.433 123 187.5C123 185.567 124.567 184 126.5 184C128.433 184 130 185.567 130 187.5Z" fill="#11184B"/>
<path d="M125.126 142.279L64.126 191.279L62.874 189.721L123.874 140.721L125.126 142.279Z" fill="#11184B"/>
<path d="M109.938 144L118.653 154.976L107.47 163.855L98.7553 152.879L109.938 144Z" fill="#11184B"/>
<path d="M90.1831 160L98.898 170.976L87.7149 179.855L79 168.879L90.1831 160Z" fill="white"/>
<path d="M98.8982 170.977L87.7152 179.856L79.0001 168.879L90.1831 160L98.8982 170.977ZM81.81 169.202L88.0379 177.046L96.0883 170.654L89.8604 162.81L81.81 169.202Z" fill="#11184B"/>
<path d="M107.825 182.648L113.903 190.404L106.349 196.324L100.271 188.568L107.825 182.648Z" fill="#11184B"/>
<path d="M119 170.5C119 172.985 116.985 175 114.5 175C112.015 175 110 172.985 110 170.5C110 168.015 112.015 166 114.5 166C116.985 166 119 168.015 119 170.5Z" fill="white"/>
<path d="M117.5 170.5C117.5 168.843 116.157 167.5 114.5 167.5C112.843 167.5 111.5 168.843 111.5 170.5C111.5 172.157 112.843 173.5 114.5 173.5V175C112.015 175 110 172.985 110 170.5C110 168.015 112.015 166 114.5 166C116.985 166 119 168.015 119 170.5C119 172.985 116.985 175 114.5 175V173.5C116.157 173.5 117.5 172.157 117.5 170.5Z" fill="#11184B"/>
<path d="M15.1056 311.23H31.2056V319H5.30559V270.14H15.1056V311.23ZM72.4845 298.77C72.4845 300.17 72.3912 301.43 72.2045 302.55H43.8545C44.0878 305.35 45.0678 307.543 46.7945 309.13C48.5212 310.717 50.6445 311.51 53.1645 311.51C56.8045 311.51 59.3945 309.947 60.9345 306.82H71.5045C70.3845 310.553 68.2378 313.633 65.0645 316.06C61.8912 318.44 57.9945 319.63 53.3745 319.63C49.6412 319.63 46.2812 318.813 43.2945 317.18C40.3545 315.5 38.0445 313.143 36.3645 310.11C34.7312 307.077 33.9145 303.577 33.9145 299.61C33.9145 295.597 34.7312 292.073 36.3645 289.04C37.9978 286.007 40.2845 283.673 43.2245 282.04C46.1645 280.407 49.5478 279.59 53.3745 279.59C57.0612 279.59 60.3512 280.383 63.2445 281.97C66.1845 283.557 68.4478 285.82 70.0345 288.76C71.6678 291.653 72.4845 294.99 72.4845 298.77ZM62.3345 295.97C62.2878 293.45 61.3778 291.443 59.6045 289.95C57.8312 288.41 55.6612 287.64 53.0945 287.64C50.6678 287.64 48.6145 288.387 46.9345 289.88C45.3012 291.327 44.2978 293.357 43.9245 295.97H62.3345ZM100.058 319L92.0776 306.96L85.0076 319H74.5076L87.1776 299.54L74.3676 280.22H85.4276L93.3376 292.19L100.478 280.22H110.978L98.2376 299.54L111.118 319H100.058ZM125.24 285.82C126.5 284.047 128.227 282.577 130.42 281.41C132.66 280.197 135.204 279.59 138.05 279.59C141.364 279.59 144.35 280.407 147.01 282.04C149.717 283.673 151.84 286.007 153.38 289.04C154.967 292.027 155.76 295.503 155.76 299.47C155.76 303.437 154.967 306.96 153.38 310.04C151.84 313.073 149.717 315.43 147.01 317.11C144.35 318.79 141.364 319.63 138.05 319.63C135.204 319.63 132.684 319.047 130.49 317.88C128.344 316.713 126.594 315.243 125.24 313.47V337.48H115.44V280.22H125.24V285.82ZM145.75 299.47C145.75 297.137 145.26 295.13 144.28 293.45C143.347 291.723 142.087 290.417 140.5 289.53C138.96 288.643 137.28 288.2 135.46 288.2C133.687 288.2 132.007 288.667 130.42 289.6C128.88 290.487 127.62 291.793 126.64 293.52C125.707 295.247 125.24 297.277 125.24 299.61C125.24 301.943 125.707 303.973 126.64 305.7C127.62 307.427 128.88 308.757 130.42 309.69C132.007 310.577 133.687 311.02 135.46 311.02C137.28 311.02 138.96 310.553 140.5 309.62C142.087 308.687 143.347 307.357 144.28 305.63C145.26 303.903 145.75 301.85 145.75 299.47ZM197.932 298.77C197.932 300.17 197.838 301.43 197.652 302.55H169.302C169.535 305.35 170.515 307.543 172.242 309.13C173.968 310.717 176.092 311.51 178.612 311.51C182.252 311.51 184.842 309.947 186.382 306.82H196.952C195.832 310.553 193.685 313.633 190.512 316.06C187.338 318.44 183.442 319.63 178.822 319.63C175.088 319.63 171.728 318.813 168.742 317.18C165.802 315.5 163.492 313.143 161.812 310.11C160.178 307.077 159.362 303.577 159.362 299.61C159.362 295.597 160.178 292.073 161.812 289.04C163.445 286.007 165.732 283.673 168.672 282.04C171.612 280.407 174.995 279.59 178.822 279.59C182.508 279.59 185.798 280.383 188.692 281.97C191.632 283.557 193.895 285.82 195.482 288.76C197.115 291.653 197.932 294.99 197.932 298.77ZM187.782 295.97C187.735 293.45 186.825 291.443 185.052 289.95C183.278 288.41 181.108 287.64 178.542 287.64C176.115 287.64 174.062 288.387 172.382 289.88C170.748 291.327 169.745 293.357 169.372 295.97H187.782ZM213.885 286.24C215.145 284.187 216.778 282.577 218.785 281.41C220.838 280.243 223.172 279.66 225.785 279.66V289.95H223.195C220.115 289.95 217.782 290.673 216.195 292.12C214.655 293.567 213.885 296.087 213.885 299.68V319H204.085V280.22H213.885V286.24ZM242.796 288.27V307.03C242.796 308.337 243.099 309.293 243.706 309.9C244.359 310.46 245.432 310.74 246.926 310.74H251.476V319H245.316C237.056 319 232.926 314.987 232.926 306.96V288.27H228.306V280.22H232.926V270.63H242.796V280.22H251.476V288.27H242.796ZM262.494 275.6C260.768 275.6 259.321 275.063 258.154 273.99C257.034 272.87 256.474 271.493 256.474 269.86C256.474 268.227 257.034 266.873 258.154 265.8C259.321 264.68 260.768 264.12 262.494 264.12C264.221 264.12 265.644 264.68 266.764 265.8C267.931 266.873 268.514 268.227 268.514 269.86C268.514 271.493 267.931 272.87 266.764 273.99C265.644 275.063 264.221 275.6 262.494 275.6ZM267.324 280.22V319H257.524V280.22H267.324ZM290.847 319.63C287.673 319.63 284.827 319.07 282.307 317.95C279.787 316.783 277.78 315.22 276.287 313.26C274.84 311.3 274.047 309.13 273.907 306.75H283.777C283.963 308.243 284.687 309.48 285.947 310.46C287.253 311.44 288.863 311.93 290.777 311.93C292.643 311.93 294.09 311.557 295.117 310.81C296.19 310.063 296.727 309.107 296.727 307.94C296.727 306.68 296.073 305.747 294.767 305.14C293.507 304.487 291.477 303.787 288.677 303.04C285.783 302.34 283.403 301.617 281.537 300.87C279.717 300.123 278.13 298.98 276.777 297.44C275.47 295.9 274.817 293.823 274.817 291.21C274.817 289.063 275.423 287.103 276.637 285.33C277.897 283.557 279.67 282.157 281.957 281.13C284.29 280.103 287.02 279.59 290.147 279.59C294.767 279.59 298.453 280.757 301.207 283.09C303.96 285.377 305.477 288.48 305.757 292.4H296.377C296.237 290.86 295.583 289.647 294.417 288.76C293.297 287.827 291.78 287.36 289.867 287.36C288.093 287.36 286.717 287.687 285.737 288.34C284.803 288.993 284.337 289.903 284.337 291.07C284.337 292.377 284.99 293.38 286.297 294.08C287.603 294.733 289.633 295.41 292.387 296.11C295.187 296.81 297.497 297.533 299.317 298.28C301.137 299.027 302.7 300.193 304.007 301.78C305.36 303.32 306.06 305.373 306.107 307.94C306.107 310.18 305.477 312.187 304.217 313.96C303.003 315.733 301.23 317.133 298.897 318.16C296.61 319.14 293.927 319.63 290.847 319.63ZM349.201 298.77C349.201 300.17 349.108 301.43 348.921 302.55H320.571C320.805 305.35 321.785 307.543 323.511 309.13C325.238 310.717 327.361 311.51 329.881 311.51C333.521 311.51 336.111 309.947 337.651 306.82H348.221C347.101 310.553 344.955 313.633 341.781 316.06C338.608 318.44 334.711 319.63 330.091 319.63C326.358 319.63 322.998 318.813 320.011 317.18C317.071 315.5 314.761 313.143 313.081 310.11C311.448 307.077 310.631 303.577 310.631 299.61C310.631 295.597 311.448 292.073 313.081 289.04C314.715 286.007 317.001 283.673 319.941 282.04C322.881 280.407 326.265 279.59 330.091 279.59C333.778 279.59 337.068 280.383 339.961 281.97C342.901 283.557 345.165 285.82 346.751 288.76C348.385 291.653 349.201 294.99 349.201 298.77ZM339.051 295.97C339.005 293.45 338.095 291.443 336.321 289.95C334.548 288.41 332.378 287.64 329.811 287.64C327.385 287.64 325.331 288.387 323.651 289.88C322.018 291.327 321.015 293.357 320.641 295.97H339.051Z" fill="#1B2355"/>
<path d="M51.3267 346.272V358.632C51.3267 360.008 50.9027 361.112 50.0547 361.944C49.2067 362.76 48.0867 363.168 46.6947 363.168C45.2867 363.168 44.1587 362.752 43.3107 361.92C42.4627 361.072 42.0387 359.92 42.0387 358.464H44.2227C44.2387 359.28 44.4467 359.944 44.8467 360.456C45.2627 360.968 45.8787 361.224 46.6947 361.224C47.5107 361.224 48.1187 360.984 48.5187 360.504C48.9187 360.008 49.1187 359.384 49.1187 358.632V346.272H51.3267ZM67.2933 349.848V363H65.1093V361.056C64.6933 361.728 64.1093 362.256 63.3573 362.64C62.6213 363.008 61.8053 363.192 60.9093 363.192C59.8853 363.192 58.9653 362.984 58.1493 362.568C57.3333 362.136 56.6853 361.496 56.2053 360.648C55.7413 359.8 55.5093 358.768 55.5093 357.552V349.848H57.6693V357.264C57.6693 358.56 57.9973 359.56 58.6533 360.264C59.3093 360.952 60.2053 361.296 61.3413 361.296C62.5093 361.296 63.4293 360.936 64.1013 360.216C64.7733 359.496 65.1093 358.448 65.1093 357.072V349.848H67.2933ZM70.1648 356.376C70.1648 355.032 70.4368 353.856 70.9808 352.848C71.5248 351.824 72.2688 351.032 73.2128 350.472C74.1728 349.912 75.2448 349.632 76.4288 349.632C77.4528 349.632 78.4048 349.872 79.2848 350.352C80.1648 350.816 80.8368 351.432 81.3008 352.2V345.24H83.5088V363H81.3008V360.528C80.8688 361.312 80.2288 361.96 79.3808 362.472C78.5328 362.968 77.5408 363.216 76.4048 363.216C75.2368 363.216 74.1728 362.928 73.2128 362.352C72.2688 361.776 71.5248 360.968 70.9808 359.928C70.4368 358.888 70.1648 357.704 70.1648 356.376ZM81.3008 356.4C81.3008 355.408 81.1008 354.544 80.7008 353.808C80.3008 353.072 79.7568 352.512 79.0688 352.128C78.3968 351.728 77.6528 351.528 76.8368 351.528C76.0208 351.528 75.2768 351.72 74.6048 352.104C73.9328 352.488 73.3968 353.048 72.9968 353.784C72.5968 354.52 72.3968 355.384 72.3968 356.376C72.3968 357.384 72.5968 358.264 72.9968 359.016C73.3968 359.752 73.9328 360.32 74.6048 360.72C75.2768 361.104 76.0208 361.296 76.8368 361.296C77.6528 361.296 78.3968 361.104 79.0688 360.72C79.7568 360.32 80.3008 359.752 80.7008 359.016C81.1008 358.264 81.3008 357.392 81.3008 356.4ZM92.6236 349.632C93.7596 349.632 94.7516 349.88 95.5996 350.376C96.4636 350.872 97.1036 351.496 97.5196 352.248V349.848H99.7276V363.288C99.7276 364.488 99.4716 365.552 98.9596 366.48C98.4476 367.424 97.7116 368.16 96.7516 368.688C95.8076 369.216 94.7036 369.48 93.4396 369.48C91.7116 369.48 90.2716 369.072 89.1196 368.256C87.9676 367.44 87.2876 366.328 87.0796 364.92H89.2396C89.4796 365.72 89.9756 366.36 90.7276 366.84C91.4796 367.336 92.3836 367.584 93.4396 367.584C94.6396 367.584 95.6156 367.208 96.3676 366.456C97.1356 365.704 97.5196 364.648 97.5196 363.288V360.528C97.0876 361.296 96.4476 361.936 95.5996 362.448C94.7516 362.96 93.7596 363.216 92.6236 363.216C91.4556 363.216 90.3916 362.928 89.4316 362.352C88.4876 361.776 87.7436 360.968 87.1996 359.928C86.6556 358.888 86.3836 357.704 86.3836 356.376C86.3836 355.032 86.6556 353.856 87.1996 352.848C87.7436 351.824 88.4876 351.032 89.4316 350.472C90.3916 349.912 91.4556 349.632 92.6236 349.632ZM97.5196 356.4C97.5196 355.408 97.3196 354.544 96.9196 353.808C96.5196 353.072 95.9756 352.512 95.2876 352.128C94.6156 351.728 93.8716 351.528 93.0556 351.528C92.2396 351.528 91.4956 351.72 90.8236 352.104C90.1516 352.488 89.6156 353.048 89.2156 353.784C88.8156 354.52 88.6156 355.384 88.6156 356.376C88.6156 357.384 88.8156 358.264 89.2156 359.016C89.6156 359.752 90.1516 360.32 90.8236 360.72C91.4956 361.104 92.2396 361.296 93.0556 361.296C93.8716 361.296 94.6156 361.104 95.2876 360.72C95.9756 360.32 96.5196 359.752 96.9196 359.016C97.3196 358.264 97.5196 357.392 97.5196 356.4ZM119.234 349.608C120.258 349.608 121.17 349.824 121.97 350.256C122.77 350.672 123.402 351.304 123.866 352.152C124.33 353 124.562 354.032 124.562 355.248V363H122.402V355.56C122.402 354.248 122.074 353.248 121.418 352.56C120.778 351.856 119.906 351.504 118.802 351.504C117.666 351.504 116.762 351.872 116.09 352.608C115.418 353.328 115.082 354.376 115.082 355.752V363H112.922V355.56C112.922 354.248 112.594 353.248 111.938 352.56C111.298 351.856 110.426 351.504 109.322 351.504C108.186 351.504 107.282 351.872 106.61 352.608C105.938 353.328 105.602 354.376 105.602 355.752V363H103.418V349.848H105.602V351.744C106.034 351.056 106.61 350.528 107.33 350.16C108.066 349.792 108.874 349.608 109.754 349.608C110.858 349.608 111.834 349.856 112.682 350.352C113.53 350.848 114.162 351.576 114.578 352.536C114.946 351.608 115.554 350.888 116.402 350.376C117.25 349.864 118.194 349.608 119.234 349.608ZM140.145 355.92C140.145 356.336 140.121 356.776 140.073 357.24H129.561C129.641 358.536 130.081 359.552 130.881 360.288C131.697 361.008 132.681 361.368 133.833 361.368C134.777 361.368 135.561 361.152 136.185 360.72C136.825 360.272 137.273 359.68 137.529 358.944H139.881C139.529 360.208 138.825 361.24 137.769 362.04C136.713 362.824 135.401 363.216 133.833 363.216C132.585 363.216 131.465 362.936 130.473 362.376C129.497 361.816 128.729 361.024 128.169 360C127.609 358.96 127.329 357.76 127.329 356.4C127.329 355.04 127.601 353.848 128.145 352.824C128.689 351.8 129.449 351.016 130.425 350.472C131.417 349.912 132.553 349.632 133.833 349.632C135.081 349.632 136.185 349.904 137.145 350.448C138.105 350.992 138.841 351.744 139.353 352.704C139.881 353.648 140.145 354.72 140.145 355.92ZM137.889 355.464C137.889 354.632 137.705 353.92 137.337 353.328C136.969 352.72 136.465 352.264 135.825 351.96C135.201 351.64 134.505 351.48 133.737 351.48C132.633 351.48 131.689 351.832 130.905 352.536C130.137 353.24 129.697 354.216 129.585 355.464H137.889ZM149.436 349.608C151.036 349.608 152.332 350.096 153.324 351.072C154.316 352.032 154.812 353.424 154.812 355.248V363H152.652V355.56C152.652 354.248 152.324 353.248 151.668 352.56C151.012 351.856 150.116 351.504 148.98 351.504C147.828 351.504 146.908 351.864 146.22 352.584C145.548 353.304 145.212 354.352 145.212 355.728V363H143.028V349.848H145.212V351.72C145.644 351.048 146.228 350.528 146.964 350.16C147.716 349.792 148.54 349.608 149.436 349.608ZM161.043 351.648V359.4C161.043 360.04 161.179 360.496 161.451 360.768C161.723 361.024 162.195 361.152 162.867 361.152H164.475V363H162.507C161.291 363 160.379 362.72 159.771 362.16C159.163 361.6 158.859 360.68 158.859 359.4V351.648H157.155V349.848H158.859V346.536H161.043V349.848H164.475V351.648H161.043ZM171.777 363.216C170.769 363.216 169.865 363.048 169.065 362.712C168.265 362.36 167.633 361.88 167.169 361.272C166.705 360.648 166.449 359.936 166.401 359.136H168.657C168.721 359.792 169.025 360.328 169.569 360.744C170.129 361.16 170.857 361.368 171.753 361.368C172.585 361.368 173.241 361.184 173.721 360.816C174.201 360.448 174.441 359.984 174.441 359.424C174.441 358.848 174.185 358.424 173.673 358.152C173.161 357.864 172.369 357.584 171.297 357.312C170.321 357.056 169.521 356.8 168.897 356.544C168.289 356.272 167.761 355.88 167.313 355.368C166.881 354.84 166.665 354.152 166.665 353.304C166.665 352.632 166.865 352.016 167.265 351.456C167.665 350.896 168.233 350.456 168.969 350.136C169.705 349.8 170.545 349.632 171.489 349.632C172.945 349.632 174.121 350 175.017 350.736C175.913 351.472 176.393 352.48 176.457 353.76H174.273C174.225 353.072 173.945 352.52 173.433 352.104C172.937 351.688 172.265 351.48 171.417 351.48C170.633 351.48 170.009 351.648 169.545 351.984C169.081 352.32 168.849 352.76 168.849 353.304C168.849 353.736 168.985 354.096 169.257 354.384C169.545 354.656 169.897 354.88 170.313 355.056C170.745 355.216 171.337 355.4 172.089 355.608C173.033 355.864 173.801 356.12 174.393 356.376C174.985 356.616 175.489 356.984 175.905 357.48C176.337 357.976 176.561 358.624 176.577 359.424C176.577 360.144 176.377 360.792 175.977 361.368C175.577 361.944 175.009 362.4 174.273 362.736C173.553 363.056 172.721 363.216 171.777 363.216ZM180.357 363.144C179.941 363.144 179.589 363 179.301 362.712C179.013 362.424 178.869 362.072 178.869 361.656C178.869 361.24 179.013 360.888 179.301 360.6C179.589 360.312 179.941 360.168 180.357 360.168C180.757 360.168 181.093 360.312 181.365 360.6C181.653 360.888 181.797 361.24 181.797 361.656C181.797 362.072 181.653 362.424 181.365 362.712C181.093 363 180.757 363.144 180.357 363.144ZM196.402 363.168C195.298 363.168 194.306 362.976 193.426 362.592C192.562 362.192 191.882 361.648 191.386 360.96C190.89 360.256 190.634 359.448 190.618 358.536H192.946C193.026 359.32 193.346 359.984 193.906 360.528C194.482 361.056 195.314 361.32 196.402 361.32C197.442 361.32 198.258 361.064 198.85 360.552C199.458 360.024 199.762 359.352 199.762 358.536C199.762 357.896 199.586 357.376 199.234 356.976C198.882 356.576 198.442 356.272 197.914 356.064C197.386 355.856 196.674 355.632 195.778 355.392C194.674 355.104 193.786 354.816 193.114 354.528C192.458 354.24 191.89 353.792 191.41 353.184C190.946 352.56 190.714 351.728 190.714 350.688C190.714 349.776 190.946 348.968 191.41 348.264C191.874 347.56 192.522 347.016 193.354 346.632C194.202 346.248 195.17 346.056 196.258 346.056C197.826 346.056 199.106 346.448 200.098 347.232C201.106 348.016 201.674 349.056 201.802 350.352H199.402C199.322 349.712 198.986 349.152 198.394 348.672C197.802 348.176 197.018 347.928 196.042 347.928C195.13 347.928 194.386 348.168 193.81 348.648C193.234 349.112 192.946 349.768 192.946 350.616C192.946 351.224 193.114 351.72 193.45 352.104C193.802 352.488 194.226 352.784 194.722 352.992C195.234 353.184 195.946 353.408 196.858 353.664C197.962 353.968 198.85 354.272 199.522 354.576C200.194 354.864 200.77 355.32 201.25 355.944C201.73 356.552 201.97 357.384 201.97 358.44C201.97 359.256 201.754 360.024 201.322 360.744C200.89 361.464 200.25 362.048 199.402 362.496C198.554 362.944 197.554 363.168 196.402 363.168ZM206.312 347.712C205.896 347.712 205.544 347.568 205.256 347.28C204.968 346.992 204.824 346.64 204.824 346.224C204.824 345.808 204.968 345.456 205.256 345.168C205.544 344.88 205.896 344.736 206.312 344.736C206.712 344.736 207.048 344.88 207.32 345.168C207.608 345.456 207.752 345.808 207.752 346.224C207.752 346.64 207.608 346.992 207.32 347.28C207.048 347.568 206.712 347.712 206.312 347.712ZM207.368 349.848V363H205.184V349.848H207.368ZM226.906 349.608C227.93 349.608 228.842 349.824 229.642 350.256C230.442 350.672 231.074 351.304 231.538 352.152C232.002 353 232.234 354.032 232.234 355.248V363H230.074V355.56C230.074 354.248 229.746 353.248 229.09 352.56C228.45 351.856 227.578 351.504 226.474 351.504C225.338 351.504 224.434 351.872 223.762 352.608C223.09 353.328 222.754 354.376 222.754 355.752V363H220.594V355.56C220.594 354.248 220.266 353.248 219.61 352.56C218.97 351.856 218.098 351.504 216.994 351.504C215.858 351.504 214.954 351.872 214.282 352.608C213.61 353.328 213.274 354.376 213.274 355.752V363H211.09V349.848H213.274V351.744C213.706 351.056 214.282 350.528 215.002 350.16C215.738 349.792 216.546 349.608 217.426 349.608C218.53 349.608 219.506 349.856 220.354 350.352C221.202 350.848 221.834 351.576 222.25 352.536C222.618 351.608 223.226 350.888 224.074 350.376C224.922 349.864 225.866 349.608 226.906 349.608ZM238.001 352.272C238.433 351.52 239.073 350.896 239.921 350.4C240.785 349.888 241.785 349.632 242.921 349.632C244.089 349.632 245.145 349.912 246.089 350.472C247.049 351.032 247.801 351.824 248.345 352.848C248.889 353.856 249.161 355.032 249.161 356.376C249.161 357.704 248.889 358.888 248.345 359.928C247.801 360.968 247.049 361.776 246.089 362.352C245.145 362.928 244.089 363.216 242.921 363.216C241.801 363.216 240.809 362.968 239.945 362.472C239.097 361.96 238.449 361.328 238.001 360.576V369.24H235.817V349.848H238.001V352.272ZM246.929 356.376C246.929 355.384 246.729 354.52 246.329 353.784C245.929 353.048 245.385 352.488 244.697 352.104C244.025 351.72 243.281 351.528 242.465 351.528C241.665 351.528 240.921 351.728 240.233 352.128C239.561 352.512 239.017 353.08 238.601 353.832C238.201 354.568 238.001 355.424 238.001 356.4C238.001 357.392 238.201 358.264 238.601 359.016C239.017 359.752 239.561 360.32 240.233 360.72C240.921 361.104 241.665 361.296 242.465 361.296C243.281 361.296 244.025 361.104 244.697 360.72C245.385 360.32 245.929 359.752 246.329 359.016C246.729 358.264 246.929 357.384 246.929 356.376ZM254.22 345.24V363H252.036V345.24H254.22ZM259.07 347.712C258.654 347.712 258.302 347.568 258.014 347.28C257.726 346.992 257.582 346.64 257.582 346.224C257.582 345.808 257.726 345.456 258.014 345.168C258.302 344.88 258.654 344.736 259.07 344.736C259.47 344.736 259.806 344.88 260.078 345.168C260.366 345.456 260.51 345.808 260.51 346.224C260.51 346.64 260.366 346.992 260.078 347.28C259.806 347.568 259.47 347.712 259.07 347.712ZM260.126 349.848V363H257.942V349.848H260.126ZM269.2 351.648H266.44V363H264.256V351.648H262.552V349.848H264.256V348.912C264.256 347.44 264.632 346.368 265.384 345.696C266.152 345.008 267.376 344.664 269.056 344.664V346.488C268.096 346.488 267.416 346.68 267.016 347.064C266.632 347.432 266.44 348.048 266.44 348.912V349.848H269.2V351.648ZM272.874 347.712C272.458 347.712 272.106 347.568 271.818 347.28C271.53 346.992 271.386 346.64 271.386 346.224C271.386 345.808 271.53 345.456 271.818 345.168C272.106 344.88 272.458 344.736 272.874 344.736C273.274 344.736 273.61 344.88 273.882 345.168C274.17 345.456 274.314 345.808 274.314 346.224C274.314 346.64 274.17 346.992 273.882 347.28C273.61 347.568 273.274 347.712 272.874 347.712ZM273.93 349.848V363H271.746V349.848H273.93ZM289.653 355.92C289.653 356.336 289.629 356.776 289.581 357.24H279.069C279.149 358.536 279.589 359.552 280.389 360.288C281.205 361.008 282.189 361.368 283.341 361.368C284.285 361.368 285.069 361.152 285.693 360.72C286.333 360.272 286.781 359.68 287.037 358.944H289.389C289.037 360.208 288.333 361.24 287.277 362.04C286.221 362.824 284.909 363.216 283.341 363.216C282.093 363.216 280.973 362.936 279.981 362.376C279.005 361.816 278.237 361.024 277.677 360C277.117 358.96 276.837 357.76 276.837 356.4C276.837 355.04 277.109 353.848 277.653 352.824C278.197 351.8 278.957 351.016 279.933 350.472C280.925 349.912 282.061 349.632 283.341 349.632C284.589 349.632 285.693 349.904 286.653 350.448C287.613 350.992 288.349 351.744 288.861 352.704C289.389 353.648 289.653 354.72 289.653 355.92ZM287.397 355.464C287.397 354.632 287.213 353.92 286.845 353.328C286.477 352.72 285.973 352.264 285.333 351.96C284.709 351.64 284.013 351.48 283.245 351.48C282.141 351.48 281.197 351.832 280.413 352.536C279.645 353.24 279.205 354.216 279.093 355.464H287.397ZM291.72 356.376C291.72 355.032 291.992 353.856 292.536 352.848C293.08 351.824 293.824 351.032 294.768 350.472C295.728 349.912 296.8 349.632 297.984 349.632C299.008 349.632 299.96 349.872 300.84 350.352C301.72 350.816 302.392 351.432 302.856 352.2V345.24H305.064V363H302.856V360.528C302.424 361.312 301.784 361.96 300.936 362.472C300.088 362.968 299.096 363.216 297.96 363.216C296.792 363.216 295.728 362.928 294.768 362.352C293.824 361.776 293.08 360.968 292.536 359.928C291.992 358.888 291.72 357.704 291.72 356.376ZM302.856 356.4C302.856 355.408 302.656 354.544 302.256 353.808C301.856 353.072 301.312 352.512 300.624 352.128C299.952 351.728 299.208 351.528 298.392 351.528C297.576 351.528 296.832 351.72 296.16 352.104C295.488 352.488 294.952 353.048 294.552 353.784C294.152 354.52 293.952 355.384 293.952 356.376C293.952 357.384 294.152 358.264 294.552 359.016C294.952 359.752 295.488 360.32 296.16 360.72C296.832 361.104 297.576 361.296 298.392 361.296C299.208 361.296 299.952 361.104 300.624 360.72C301.312 360.32 301.856 359.752 302.256 359.016C302.656 358.264 302.856 357.392 302.856 356.4ZM309.45 363.144C309.034 363.144 308.682 363 308.394 362.712C308.106 362.424 307.962 362.072 307.962 361.656C307.962 361.24 308.106 360.888 308.394 360.6C308.682 360.312 309.034 360.168 309.45 360.168C309.85 360.168 310.186 360.312 310.458 360.6C310.746 360.888 310.89 361.24 310.89 361.656C310.89 362.072 310.746 362.424 310.458 362.712C310.186 363 309.85 363.144 309.45 363.144Z" fill="#1B2355"/>
<defs>
<linearGradient id="paint0_linear_5227_823" x1="165.5" y1="135" x2="300" y2="2.49999" gradientUnits="userSpaceOnUse">
<stop stop-color="#11174B"/>
<stop offset="1" stop-color="#1B6BBB"/>
</linearGradient>
<linearGradient id="paint1_linear_5227_823" x1="262" y1="36" x2="54.5" y2="196.5" gradientUnits="userSpaceOnUse">
<stop stop-color="#1A60AC"/>
<stop offset="0.637707" stop-color="#171C4E"/>
</linearGradient>
<linearGradient id="paint2_linear_5227_823" x1="169" y1="191.5" x2="258" y2="191.5" gradientUnits="userSpaceOnUse">
<stop stop-color="#D59D3A"/>
<stop offset="1" stop-color="#F9D77B"/>
</linearGradient>
<linearGradient id="paint3_linear_5227_823" x1="153.484" y1="71.5246" x2="189.196" y2="45.9455" gradientUnits="userSpaceOnUse">
<stop stop-color="#D59D3A"/>
<stop offset="1" stop-color="#F9D77B"/>
</linearGradient>
<linearGradient id="paint4_linear_5227_823" x1="200.168" y1="140.896" x2="237.812" y2="113.933" gradientUnits="userSpaceOnUse">
<stop stop-color="#D59D3A"/>
<stop offset="1" stop-color="#F9D77B"/>
</linearGradient>
<linearGradient id="paint5_linear_5227_823" x1="166.968" y1="74.7302" x2="188.413" y2="59.3695" gradientUnits="userSpaceOnUse">
<stop stop-color="#D59D3A"/>
<stop offset="1" stop-color="#F7D478"/>
</linearGradient>
<linearGradient id="paint6_linear_5227_823" x1="198.697" y1="124.426" x2="221.115" y2="108.369" gradientUnits="userSpaceOnUse">
<stop stop-color="#D59D3A"/>
<stop offset="1" stop-color="#F7D478"/>
</linearGradient>
<linearGradient id="paint7_linear_5227_823" x1="221" y1="70.5" x2="174.5" y2="108" gradientUnits="userSpaceOnUse">
<stop stop-color="#1B5DA6"/>
<stop offset="1" stop-color="#0A2440"/>
</linearGradient>
<linearGradient id="paint8_linear_5227_823" x1="150.061" y1="70.998" x2="195.871" y2="38.1861" gradientUnits="userSpaceOnUse">
<stop stop-color="#144886"/>
<stop offset="1" stop-color="#1B60A9"/>
</linearGradient>
<linearGradient id="paint9_linear_5227_823" x1="197.658" y1="140.316" x2="243.468" y2="107.504" gradientUnits="userSpaceOnUse">
<stop stop-color="#1B346C"/>
<stop offset="1" stop-color="#265399"/>
</linearGradient>
</defs>
</svg>
